<svg width="16" height="12" viewBox="0 0 16 12" fill="none" xmlns="http://www.w3.org/2000/svg">
<path d="M15.8982 5.64529C15.7702 5.44196 12.7142 0.666626 8.00017 0.666626C3.28617 0.666626 0.23017 5.44196 0.10217 5.64529C0.0354142 5.75154 0 5.87448 0 5.99996C0 6.12544 0.0354142 6.24837 0.10217 6.35463C0.23017 6.55796 3.28617 11.3333 8.00017 11.3333C12.7142 11.3333 15.7702 6.55796 15.8982 6.35463C15.9649 6.24837 16.0003 6.12544 16.0003 5.99996C16.0003 5.87448 15.9649 5.75154 15.8982 5.64529V5.64529ZM8.00017 8.66663C7.47275 8.66663 6.95718 8.51023 6.51865 8.21721C6.08012 7.92419 5.73832 7.50772 5.53649 7.02045C5.33466 6.53318 5.28185 5.997 5.38474 5.47972C5.48764 4.96244 5.74161 4.48728 6.11455 4.11434C6.48749 3.7414 6.96265 3.48743 7.47993 3.38453C7.99721 3.28164 8.53339 3.33445 9.02066 3.53628C9.50793 3.73811 9.9244 4.07991 10.2174 4.51844C10.5104 4.95697 10.6668 5.47254 10.6668 5.99996C10.6668 6.7072 10.3859 7.38548 9.88579 7.88558C9.38569 8.38567 8.70741 8.66663 8.00017 8.66663Z" fill="#898989"/>
</svg>
