<svg width="48" height="17" viewBox="0 0 48 17" fill="none" xmlns="http://www.w3.org/2000/svg">
<path fill-rule="evenodd" clip-rule="evenodd" d="M10.3462 11.3941L14.046 0.869629V0.871329H18.0416L12.1042 16.3448H8.10864L4.7207 3.02878C7.11427 4.32145 9.25904 6.92379 9.94314 9.31856L10.3462 11.3941ZM19.5642 0.869629L17.2016 16.3603H20.9779L23.339 0.869629H19.5642ZM30.9549 7.17964C29.6352 6.49302 28.8262 6.0296 28.8262 5.32734C28.8424 4.68882 29.5103 4.03467 31.002 4.03467C32.2288 4.0022 33.1306 4.30598 33.8147 4.60824L34.1574 4.7694L34.6708 1.52838C33.9249 1.22459 32.7422 0.889862 31.2814 0.889862C27.5523 0.889862 24.9264 2.93274 24.9101 5.8545C24.8793 8.0106 26.7901 9.20705 28.2201 9.92478C29.6809 10.661 30.1782 11.1384 30.1782 11.7926C30.162 12.7969 28.9969 13.2603 27.9098 13.2603C26.4035 13.2603 25.5943 13.0216 24.366 12.462L23.8687 12.2233L23.3407 15.5915C24.2277 16.007 25.8591 16.3727 27.5524 16.3914C31.5155 16.3914 34.0943 14.3794 34.1268 11.2656C34.1397 9.55741 33.1321 8.2491 30.9549 7.17964ZM41.4304 0.917572H44.3521L47.3972 16.3727H43.9018L43.3354 13.2867H38.9015L37.81 16.3603H33.8469L39.4562 2.16383C39.846 1.19042 40.5301 0.917572 41.4304 0.917572ZM40.0009 10.183C40.0815 10.1752 41.5218 5.16669 41.5218 5.16669L42.6721 10.183H40.0009Z" fill="white"/>
<path d="M8.69713 2.97872C8.42671 1.72988 7.56429 0.887603 6.39302 0.869629H0.897417L0.84082 1.17267C5.12777 2.42799 8.72603 6.29066 9.89337 9.92397L8.69713 2.97872Z" fill="white"/>
</svg>
